<svg width="19" height="20" viewBox="0 0 19 20" fill="none" xmlns="http://www.w3.org/2000/svg">
<path d="M0.5 4C0.5 2.9 1.4 2 2.5 2H16.5C17.0304 2 17.5391 2.21071 17.9142 2.58579C18.2893 2.96086 18.5 3.46957 18.5 4V18C18.5 18.5304 18.2893 19.0391 17.9142 19.4142C17.5391 19.7893 17.0304 20 16.5 20H2.5C1.96957 20 1.46086 19.7893 1.08579 19.4142C0.710714 19.0391 0.5 18.5304 0.5 18V4ZM2.5 6V18H16.5V6H2.5ZM4.5 0H6.5V2H4.5V0ZM12.5 0H14.5V2H12.5V0ZM4.5 9H6.5V11H4.5V9ZM4.5 13H6.5V15H4.5V13ZM8.5 9H10.5V11H8.5V9ZM8.5 13H10.5V15H8.5V13ZM12.5 9H14.5V11H12.5V9ZM12.5 13H14.5V15H12.5V13Z" fill="#5F5F5F"/>
</svg>
